<svg width="147" height="48" viewBox="0 0 147 48" fill="none" xmlns="http://www.w3.org/2000/svg">
<path d="M43.3008 32.7005C47.5 28 48.5 25.5 50.8008 20.7005L53 23L58.5 16.5L60.5 18.5L71 9L78.5 17.625L81.5 15L84 18.5L88.5 14.5L100.5 28L104.5 32H104L100.5 28L88.5 14.5L89 21.5L88 24L90.5 27L89.7778 29.8875L91.5 32H91L89 29.5L78.5 17.625L71 9V21L75.5 26L71 23.6575L76 32H73L59 19.5L60 28.5L58 32.5L43.3008 32.7005Z" fill="#212529"/>
<path d="M71 9L60.5 18.5L58.5 16.5L53 23L50.8008 20.7005C48.5 25.5 47.5 28 43.3008 32.7005L58 32.5L60 28.5L59 19.5L73 32H76L71 23.6575L75.5 26L71 21V9ZM71 9L78.5 17.625M88.5 14.5L84 18.5L81.5 15L78.5 17.625M88.5 14.5L89 21.5L88 24L90.5 27L89.7778 29.8875L91.5 32H91L89 29.5L78.5 17.625M88.5 14.5L100.5 28M100.5 28L104.5 32H104L100.5 28Z" stroke="#212529" stroke-miterlimit="16"/>
<rect x="3" y="3" width="141" height="38" rx="12" stroke="#212529" stroke-width="5"/>
<rect x="57.5" y="35" width="32" height="12" rx="1.5" fill="#212529" stroke="#212529"/>
</svg>
